<?xml version="1.0"?>
<svg width="640" height="480" xmlns="http://www.w3.org/2000/svg" xmlns:svg="http://www.w3.org/2000/svg" xmlns:xlink="http://www.w3.org/1999/xlink">
 <!-- Created with SVG-edit - https://github.com/SVG-Edit/svgedit-->
 <defs>
  <symbol id="svg_2" viewBox="0 0 512 512" xmlns="http://www.w3.org/2000/svg">
   <g id="svg_1">
    <g id="svg_5">
     <path d="m158.5,177.017l195,0l0,65.077l-195,0l0,-65.077z" fill="#e2dee2" id="svg_9"/>
     <path d="m374.608,249.203l0,40.297l-237.216,0l0,-40.297l118.608,-37.673l118.608,37.673z" fill="#b5adb6" id="svg_10"/>
     <path d="m324,57.5l-68,0l0,-50l68,0c5.523,0 10,4.477 10,10l0,30c0,5.523 -4.477,10 -10,10z" fill="#fe646f" id="svg_11"/>
     <path d="m324,7.5l-10,0c0,22.091 -17.909,40 -40,40l-18,0l0,10l68,0c5.523,0 10,-4.477 10,-10l0,-30c0,-5.523 -4.477,-10 -10,-10z" fill="#fd4755" id="svg_12"/>
     <g id="svg_13">
      <path d="m256,90.648c-4.142,0 -7.5,-3.357 -7.5,-7.5l0,-75.648c0,-4.143 3.358,-7.5 7.5,-7.5s7.5,3.357 7.5,7.5l0,75.648c0,4.143 -3.358,7.5 -7.5,7.5z" fill="#a79ba7" id="svg_14"/>
     </g>
     <path d="m22.5,289.5l467,0l0,215l-467,0l0,-215z" fill="#b5adb6" id="svg_15"/>
     <path d="m386.303,327.5l-260.606,0c-8.284,0 -15,-6.716 -15,-15l0,-23l290.606,0l0,23c0,8.284 -6.716,15 -15,15z" fill="#a79ba7" id="svg_16"/>
     <g fill="#e2dee2" id="svg_17">
      <g id="svg_18">
       <path d="m135.22,327.5l46.56,0l0,177l-46.56,0l0,-177z" id="svg_19"/>
       <path d="m330.22,327.5l46.56,0l0,177l-46.56,0l0,-177z" id="svg_20"/>
       <path d="m230.547,327.5l46.56,0l0,177l-46.56,0l0,-177z" id="svg_21"/>
      </g>
      <path d="m459.5,504.5l-52.72,0l0,-77.725c0,-14.558 11.802,-26.36 26.36,-26.36c14.558,0 26.36,11.802 26.36,26.36l0,77.725z" id="svg_22"/>
      <path d="m105.22,504.5l-52.72,0l0,-77.725c0,-14.558 11.802,-26.36 26.36,-26.36c14.558,0 26.36,11.802 26.36,26.36l0,77.725z" id="svg_23"/>
     </g>
     <path d="m353.5,177.017l-195,0c0,-51.842 42.026,-93.869 93.869,-93.869l7.263,0c51.842,0.001 93.868,42.027 93.868,93.869z" fill="#b5adb6" id="svg_24"/>
     <g id="svg_25">
      <path d="m143.5,177.017l225,0" fill="#b5adb6" id="svg_26"/>
     </g>
    </g>
    <path d="m504.5,497l-7.5,0l0,-200l7.5,0c4.142,0 7.5,-3.357 7.5,-7.5s-3.358,-7.5 -7.5,-7.5l-122.393,0l0,-22.356l5.106,1.72c3.826,1.294 8.165,-0.744 9.502,-4.714c1.322,-3.925 -0.789,-8.179 -4.714,-9.501l-31.001,-10.442l0,-52.189l7.5,0c4.142,0 7.5,-3.357 7.5,-7.5s-3.358,-7.5 -7.5,-7.5l-7.778,0c-3.758,-51.134 -45.614,-91.841 -97.222,-93.788l0,-10.73l60.5,0c9.649,0 17.5,-7.851 17.5,-17.5l0,-30c0,-9.649 -7.851,-17.5 -17.5,-17.5l-68,0c-4.142,0 -7.5,3.357 -7.5,7.5l0,68.232c-21.777,0.839 -42.895,8.726 -59.845,22.438c-3.22,2.605 -3.719,7.328 -1.114,10.548c2.606,3.221 7.329,3.72 10.548,1.114c15.291,-12.371 34.568,-19.184 54.279,-19.184l7.263,0c45.095,0 82.206,34.746 86.022,78.869l-179.32,0c1.292,-15.054 6.456,-29.397 15.152,-41.859c2.37,-3.397 1.538,-8.072 -1.859,-10.442c-3.397,-2.368 -8.071,-1.539 -10.443,1.858c-10.462,14.994 -16.581,32.3 -17.905,50.443l-7.778,0c-4.142,0 -7.5,3.357 -7.5,7.5s3.358,7.5 7.5,7.5l7.5,0l0,52.189l-31.001,10.442c-3.925,1.322 -6.036,5.576 -4.714,9.501c1.323,3.926 5.577,6.035 9.502,4.714l5.106,-1.72l0,22.357l-122.393,0c-4.142,0 -7.5,3.357 -7.5,7.5s3.358,7.5 7.5,7.5l7.5,0l0,200l-7.5,0c-4.142,0 -7.5,3.357 -7.5,7.5s3.358,7.5 7.5,7.5l497,0c4.142,0 7.5,-3.357 7.5,-7.5s-3.358,-7.5 -7.5,-7.5zm-241,-482l60.5,0c1.378,0 2.5,1.121 2.5,2.5l0,30c0,1.379 -1.122,2.5 -2.5,2.5l-60.5,0l0,-35zm-97.5,169.518l180,0l0,47.137l-74.838,-25.207c-9.777,-3.294 -20.545,-3.293 -30.323,0l-74.839,25.207l0,-47.137zm-21.107,70.073l15.832,-5.332c0.008,-0.002 0.015,-0.005 0.023,-0.008l84.879,-28.588c6.69,-2.252 14.059,-2.251 20.747,0l84.879,28.588c0.008,0.002 0.015,0.005 0.023,0.008l15.831,5.332l0,27.409l-222.214,0l0,-27.409zm-47.173,242.409l-37.72,0l0,-30l37.72,0l0,30zm0,-45l-37.72,0l0,-25.226c0,-10.399 8.46,-18.859 18.86,-18.859s18.86,8.46 18.86,18.859l0,25.226zm30,45l-15,0l0,-70.226c0,-18.67 -15.189,-33.859 -33.86,-33.859s-33.86,15.189 -33.86,33.859l0,70.226l-15,0l0,-118.107l97.72,0l0,118.107zm0,-133.107l-97.72,0l0,-66.893l73.197,0l0,15.5c0,12.406 10.093,22.5 22.5,22.5l2.022,0l0,28.893l0.001,0zm46.56,133.107l-31.56,0l0,-162l31.561,0l0,162l-0.001,0zm48.767,0l-33.767,0l0,-162l33.767,0l0,162zm46.56,0l-31.56,0l0,-162l31.56,0l0,162zm53.113,0l-38.112,0l0,-162l2.001,0c4.142,0 7.5,-3.357 7.5,-7.5s-3.358,-7.5 -7.5,-7.5l-160.912,0c-4.136,0 -7.5,-3.364 -7.5,-7.5l0,-15.5l275.605,0l0,15.5c0,4.136 -3.364,7.5 -7.5,7.5l-69.694,0c-4.142,0 -7.5,3.357 -7.5,7.5s3.358,7.5 7.5,7.5l6.111,0l0,162l0.001,0zm46.56,0l-31.56,0l0,-162l31.561,0l0,162l-0.001,0zm82.72,0l-37.72,0l0,-30l37.72,0l0,30zm0,-45l-37.72,0l0,-25.226c0,-10.399 8.46,-18.859 18.86,-18.859s18.86,8.46 18.86,18.859l0,25.226zm30,45l-15,0l0,-70.226c0,-18.67 -15.189,-33.859 -33.86,-33.859s-33.86,15.189 -33.86,33.859l0,70.226l-15,0l0,-118.107l97.72,0l0,118.107zm0,-133.107l-97.72,0l0,-28.893l2.022,0c12.407,0 22.5,-10.094 22.5,-22.5l0,-15.5l73.198,0l0,66.893z" id="svg_27"/>
   </g>
  </symbol>
  <symbol id="svg_6" viewBox="0 0 508 508" xmlns="http://www.w3.org/2000/svg">
   <path d="m371.85,133.27c-21.53,3.78 -43.55,-3.17 -59.01,-18.63s-37.49,-22.41 -59.02,-18.63l-136.32,23.96l0,0.03l-40,0l0,378l40,0l0,-120.03l136.32,-23.96c21.53,-3.78 43.55,3.17 59.02,18.63c15.46,15.46 37.48,22.41 59.01,18.63l75.65,-13.3l0,-258l-75.65,13.3z" fill="#fff" id="svg_28"/>
   <ellipse cx="282.5" cy="226.233" fill="#66e0f7" id="svg_29" rx="36.84" ry="46.669" transform="matrix(.839 -.544 .544 .839 -77.608 190.045)"/>
   <path d="m371.85,305.27c-21.53,3.78 -43.55,-3.17 -59.01,-18.63s-37.49,-22.41 -59.02,-18.63l-136.32,23.96l0,46.03l-40,0l0,40l40,0l0,-0.03l136.32,-23.96c21.53,-3.78 43.55,3.17 59.02,18.63c15.46,15.46 37.48,22.41 59.01,18.63l75.65,-13.3l0,-86l-75.65,13.3z" fill="#89df8f" id="svg_30"/>
   <path d="m447.5,119.97l0,86l-75.65,13.3c-21.53,3.78 -43.55,-3.17 -59.01,-18.63s-37.49,-22.41 -59.02,-18.63l-136.32,23.96l0,-45.97l-40,0l0,-40l3,0c-11.046,0 -20,-8.954 -20,-20s8.954,-20 20,-20l34,0c11.046,0 20,8.954 20,20s-8.954,20 -20,20l3,0l0,-0.03l136.32,-23.96c21.53,-3.78 43.56,3.17 59.02,18.63s37.48,22.41 59.01,18.63l75.65,-13.3zm-315,-74.97c0,-19.33 -15.67,-35 -35,-35s-35,15.67 -35,35s15.67,35 35,35s35,-15.67 35,-35z" fill="#ffda8f" id="svg_31"/>
   <path d="m77.5,265c-5.51,0 -10,-4.49 -10,-10s4.49,-10 10,-10s10,4.49 10,10s-4.49,10 -10,10zm380,-145.028l0,258c0,4.855 -3.487,9.009 -8.269,9.849l-75.646,13.295c-4.433,0.779 -8.887,1.161 -13.313,1.161c-20.256,0 -39.942,-8 -54.507,-22.566c-13.141,-13.141 -31.914,-19.066 -50.218,-15.849l-128.047,22.505l0,111.633c0,5.523 -4.477,10 -10,10l-40,0c-5.523,0 -10,-4.477 -10,-10l0,-197.642c0,-5.318 4,-9.973 9.306,-10.334c5.822,-0.397 10.694,4.236 10.694,9.976l0,28l20,0l0,-158l-20,0l0,40c0,5.51 -4.49,10 -10,10s-10,-4.49 -10,-10l0,-82.966c-10.05,-4.852 -17,-15.146 -17,-27.034c0,-10.439 5.363,-19.646 13.476,-25.022c-7.13,-7.965 -11.476,-18.472 -11.476,-29.978c0,-24.813 20.187,-45 45,-45s45,20.187 45,45c0,11.506 -4.346,22.013 -11.476,29.978c8.113,5.376 13.476,14.583 13.476,25.022c0,1.757 -0.161,3.477 -0.452,5.152l108.037,-18.988c24.717,-4.343 50.073,3.657 67.822,21.405c13.141,13.141 31.917,19.068 50.216,15.849l75.646,-13.295c2.915,-0.509 5.898,0.291 8.161,2.19c2.263,1.9 3.57,4.704 3.57,7.659zm-343,-9.972c5.514,0 10,-4.486 10,-10s-4.486,-10 -10,-10l-34,0c-5.514,0 -10,4.486 -10,10s4.486,10 10,10l34,0zm13,170.061l120.887,-21.247c-9.8,-11.555 -15.887,-26.565 -15.887,-41.948c0,-7.913 1.709,-15.349 4.865,-21.809l-109.865,19.31l0,65.694zm178.9,-65.693c-10.013,-17.592 -28.83,-26.541 -42.03,-19.988s-15.783,26.126 -5.771,43.718c10.013,17.592 28.83,26.541 42.03,19.988c13.2,-6.554 15.784,-26.127 5.771,-43.718zm6.821,59.483c2.321,1.694 4.555,3.587 6.686,5.718c13.141,13.141 31.917,19.065 50.216,15.849l67.377,-11.842l0,-65.693l-63.915,11.233c-4.433,0.779 -8.887,1.161 -13.313,1.161c-9.917,0 -19.692,-1.929 -28.801,-5.596c0.663,3.591 1.03,7.242 1.03,10.918c0,14.75 -5.888,27.877 -16.153,36.017c-1.013,0.802 -2.057,1.543 -3.127,2.235zm-185.721,-145.484l0,65.693l124.585,-21.896c24.717,-4.344 50.073,3.657 67.822,21.405c13.141,13.141 31.917,19.067 50.216,15.849l67.377,-11.842l0,-65.694l-63.915,11.234c-24.718,4.345 -50.072,-3.657 -67.82,-21.404c-13.141,-13.142 -31.914,-19.067 -50.218,-15.85l-128.047,22.505zm-55,-83.367c0,13.785 11.215,25 25,25s25,-11.215 25,-25s-11.215,-25 -25,-25s-25,11.215 -25,25zm35,105l0,-20l-20,0l0,20l20,0zm-20,198l0,20l20,0l0,-20l-20,0zm20,140l0,-100l-20,0l0,100l20,0zm330,-118.424l0,-65.693l-63.915,11.233c-4.433,0.779 -8.887,1.161 -13.313,1.161c-20.256,0 -39.942,-8 -54.507,-22.566c-13.141,-13.141 -31.914,-19.067 -50.218,-15.849l-128.047,22.505l0,65.693l124.585,-21.896c24.717,-4.345 50.073,3.657 67.822,21.405c13.141,13.141 31.917,19.067 50.216,15.849l67.377,-11.842z" id="svg_32"/>
  </symbol>
 </defs>
 <g class="layer">
  <title>Layer 1</title>
  <g id="svg_33">
   <use id="svg_3" transform="matrix(1.06875 0 0 0.902596 61.58 -4.34709)" x="-76.8" xlink:href="#svg_2" y="54.4"/>
   <g id="svg_4"/>
   <use id="svg_7" transform="matrix(0.363529 0 0 0.274481 1814.47 292.652)" x="-4278.206958" xlink:href="#svg_6" y="-1057.810977"/>
   <g id="svg_8"/>
  </g>
 </g>
</svg>